<svg xmlns="http://www.w3.org/2000/svg" viewBox="0 0 293.27 246.04"><defs><style>.cls-1{fill:#ffffff;}</style></defs><title>Ativo 1</title><g id="Camada_2" data-name="Camada 2"><g id="Camada_1-2" data-name="Camada 1"><path class="cls-1" d="M29.18,152C27.1,134,17,125.61,0,123.17,17,120.55,27.5,112.52,28.9,94c2.86,17.08,10.72,27.89,29.5,28.66C41.72,126,30.73,133.62,29.18,152Z"/><path class="cls-1" d="M235.1,207.47c17.1-2.67,27.43-10.58,28.74-29.28,2.81,17.32,11.48,27.1,29.43,28.85-16.74,2.91-27.52,10.7-28.89,29.32C261.85,219,253.52,208.68,235.1,207.47Z"/><path class="cls-1" d="M185.49,29.05c-2,17.89-11.15,27.92-29.56,30.09,18.77,1.34,27.46,11.69,29.73,29.63,1.26-18.84,12-27.31,29.45-30.09C196.33,57.24,187.81,46.85,185.49,29.05Z"/><path class="cls-1" d="M249.41,51c4-13.5-3.5-41.5-27-49s-46.5,12-76,11-29-12-57-13-38.5,23-41,47c-3,29.07,26.5,86.5,26.5,86.5-6,8.5-7,49-7,49,0,48,48,63.51,48,63.51-25-88,33.5-101,33.5-101,65,13.5,33.5,100.5,33.5,100.5,14,6.5,63-51,50-84s-5-48-5-48C247.41,79.53,249.41,51,249.41,51ZM217.05,73.25c-10.71,1.7-15.69,8-17.41,18.39-1.23,7.48-6.29,12.6-14.2,12.55s-12.74-5-14-12.72C169.77,80.75,163.9,74.79,153.2,73c-7.69-1.27-12.59-6.15-12.84-13.93-.26-8,4.94-13,12.38-14.26,10.74-1.83,17-7.11,18.7-18.15,1.16-7.48,5.83-12.25,16.17-13.74,2.72,2.3,6.85,5.48,10.55,9.11,1.22,1.2,1.6,3.52,1.84,5.39,1.27,9.86,6.69,15.32,16.56,16.92,8.13,1.32,14.14,5.78,14,14.66C230.49,67.36,224.95,72,217.05,73.25Z"/><path class="cls-1" d="M185.49,29.05c2.32,17.79,10.84,28.18,29.63,29.62-17.5,2.79-28.19,11.26-29.45,30.09-2.27-17.94-11-28.29-29.73-29.63C174.34,57,183.46,46.95,185.49,29.05Z"/></g></g></svg>