<svg xmlns="http://www.w3.org/2000/svg" viewBox="0 0 238.74 246.04"><defs><style>.cls-1{fill:#ffffff;}</style></defs><title>Ativo 2</title><g id="Camada_2" data-name="Camada 2"><g id="Camada_1-2" data-name="Camada 1"><path class="cls-1" d="M227.3,148.7a16.86,16.86,0,0,1-9.66-1.45c-3.15-1.57-6.27-3.2-9.4-4.79q-9.3-4.72-18.6-9.42c-2.68-1.35-5.4-2.62-8.28-4a72.46,72.46,0,0,0,13.11-25.76c1.52.74,3,1.44,4.45,2.18q9.54,4.81,19.06,9.63c4.6,2.35,9.19,4.74,13.77,7.13,2.66,1.39,4.29,3.77,5.82,6.24l1,3.15c0,.29,0,.59,0,.88a15,15,0,0,1-1.93,9.41,17.09,17.09,0,0,1-6.26,5.79Z"/><path class="cls-1" d="M174.22,2c-23.5-7.5-46.5,12-76,11s-29-12-57-13S2.72,23,.22,47c-3,29.07,26.5,86.5,26.5,86.5-6,8.5-7,49-7,49,0,48,48,63.51,48,63.51-22.56-79.4,22.87-97.75,32-100.57a66.05,66.05,0,0,1-19.23-12.08,63.27,63.27,0,0,1-14.82-19.7c-.9-1.86-1.78-3.73-2.67-5.6l-2.22-6.78a7.31,7.31,0,0,0-.11-1,68.61,68.61,0,0,1-2-18.65A64.16,64.16,0,0,1,62,63.08,66.64,66.64,0,0,1,72,44,64.31,64.31,0,0,1,92.73,26.16c2.71-1.48,5.55-2.71,8.33-4.06L107.61,20c2.92-.54,5.82-1.18,8.75-1.59a64.2,64.2,0,0,1,20.63.47,65.72,65.72,0,0,1,24.4,9.8A64.21,64.21,0,0,1,180.57,48,67.11,67.11,0,0,1,191,90.1c9-22.71,10.19-39.07,10.19-39.07C205.22,37.53,197.72,9.53,174.22,2Z"/><path class="cls-1" d="M177.37,124.79a63.9,63.9,0,0,1-17,15.34,67.31,67.31,0,0,1-21.19,8.72,66,66,0,0,1-23.8.93c45.85,22.5,19.34,95.75,19.34,95.75,14,6.5,63-51,50-84C178.11,144.76,176.93,132.65,177.37,124.79Z"/><path class="cls-1" d="M140.18,130.75A49.09,49.09,0,1,0,78.26,99.39,48.84,48.84,0,0,0,140.18,130.75Zm-46.86-30A25.43,25.43,0,0,1,90.61,93c-.72-4.13,2-5.77,5-5.36a13.49,13.49,0,0,1,6.14,2.91c2.67,2,4.5,4.71,6.38,7.37a35,35,0,0,0,10.21,9.42c6.11,3.83,13,5.59,19.86,7.25a29.43,29.43,0,0,1,3.64,1.12c.4.15.9.67.9,1a1.74,1.74,0,0,1-.83,1.14,20.25,20.25,0,0,1-2.29,1.11,35.87,35.87,0,0,1-11,1.32,46,46,0,0,1-16.27-3.14A36,36,0,0,1,93.31,100.73Z"/></g></g></svg>