<svg xmlns="http://www.w3.org/2000/svg" viewBox="0 0 202.24 262.07"><defs><style>.cls-1{fill:#ffffff;}</style></defs><title>Ativo 3</title><g id="Camada_2" data-name="Camada 2"><g id="Camada_1-2" data-name="Camada 1"><path class="cls-1" d="M201.22,51c4-13.5-3.5-41.5-27-49s-46.5,12-76,11-29-12-57-13S2.72,23,.22,47c-3,29.07,26.5,86.5,26.5,86.5-6,8.5-7,49-7,49,0,48,40.59,13.69,40.59,13.69-12.58-44.29,3.4-19.77,15-34l-15.4,1c0-8.34-.94-16,.45-23.27.58-3,6-7.19,9.39-7.29,21.1-.58,42.23-.1,63.35-.11,7.36,0,10.64,3.43,10.34,10.72-.18,4.25,0,8.52,0,14.27l-15.6,1.06c28,28.56,15.08,31.87,15.08,31.87,14,6.5,54.82,4,41.82-29s-5-48-5-48C199.22,79.53,201.22,51,201.22,51ZM71.92,28c.27-2.43,5.29-6.06,8.25-6.19,14.33-.65,28.73-.71,43.06,0,3.11.16,8.31,4.25,8.61,7,2,18.43,3,37,4.47,56.92H67.22C68.74,65.62,69.86,46.78,71.92,28Zm74.4,81c-1,4.16-2.12,8.27-3.37,13.14H61.28c-.25-.27-.87-.64-1-1.14C52.5,91.8,55,96.56,77.72,96.47q29.37-.11,58.74,0C147.34,96.5,148.79,98.38,146.32,109.05Z"/><path class="cls-1" d="M60.31,196.22V169.94l82.59-5.62v26.24Z"/><path class="cls-1" d="M58.58,203l85.92-5.87c-1.71,8.41-2.6,15.55-4.83,22.25-.74,2.23-4.8,4.49-7.52,4.74-20.08,1.83-40.2,3.24-60.32,4.49-2,.12-5.25-1.26-5.84-2.75C63.27,218.91,61.29,211.66,58.58,203Z"/><path class="cls-1" d="M70.87,235.11l63.3-4.32c-3.89,9.59-6.57,18.26-10.81,26.09-4,7.4-40.15,6.63-44-.75C76.1,250,74.08,243.26,70.87,235.11Z"/></g></g></svg>