<svg xmlns="http://www.w3.org/2000/svg" viewBox="0 0 230.26 264.73"><defs><style>.cls-1{fill:none;stroke:#ffffff;stroke-miterlimit:10;stroke-width:19px;}</style></defs><title>Ativo 5</title><g id="Camada_2" data-name="Camada 2"><g id="Camada_1-2" data-name="Camada 1"><path class="cls-1" d="M219.73,60.22c4-13.5-3.5-41.5-27-49s-49.71,12-79.21,11c-29.5,1-52.5-18.5-76-11s-31,35.5-27,49c0,0,2,28.5,21.5,62.5,0,0,8,15-5,48s36,90.5,50,84c0,0-22.16-98.17,42.72-100.5,65.79,1.67,33.5,100.5,33.5,100.5,14,6.5,63-51,50-84s-5-48-5-48C217.73,88.72,219.73,60.22,219.73,60.22Z"/></g></g></svg>